<?xml version="1.0" encoding="UTF-8" standalone="no"?>
<!DOCTYPE svg PUBLIC "-//W3C//DTD SVG 1.1//EN" "http://www.w3.org/Graphics/SVG/1.1/DTD/svg11.dtd">
<svg width="100%" height="100%" viewBox="0 0 512 512" version="1.1" xmlns="http://www.w3.org/2000/svg" xmlns:xlink="http://www.w3.org/1999/xlink" xml:space="preserve" xmlns:serif="http://www.serif.com/" style="fill-rule:evenodd;clip-rule:evenodd;stroke-linejoin:round;stroke-miterlimit:2;">
    <g transform="matrix(1.49836,0,0,1.49836,64.5233,40.7964)">
        <path d="M255.569,84.452C255.567,79.622 254.534,75.354 252.445,71.691L128.182,143.241L252.595,215.315C254.589,211.707 255.58,207.522 255.582,202.797C255.582,202.797 255.582,123.908 255.569,84.452" style="fill:rgb(57,0,145);fill-rule:nonzero;"/>
    </g>
    <g transform="matrix(-1.49836,0,0,1.49836,447.063,41.7964)">
        <path d="M255.569,84.452C255.567,79.622 254.534,75.354 252.445,71.691L128.182,143.241L252.595,215.315C254.589,211.707 255.58,207.522 255.582,202.797C255.582,202.797 255.582,123.908 255.569,84.452" style="fill:rgb(57,0,145);fill-rule:nonzero;"/>
    </g>
    <g transform="matrix(1.49836,0,0,1.49836,64.5233,40.7964)">
        <path d="M128.182,143.241L2.988,215.325C5.041,219.036 8.157,222.138 12.374,224.579C32.58,236.282 100.394,275.126 113.934,283.115C123.04,288.488 131.931,288.68 141.104,283.384C175.119,263.744 209.179,244.186 243.209,224.567C247.426,222.127 250.542,219.023 252.595,215.315L128.182,143.241Z" style="fill:rgb(40,0,104);fill-rule:nonzero;"/>
    </g>
    <g transform="matrix(1.49836,0,0,-1.49836,64.5233,472.05)">
        <path d="M128.182,143.241L2.988,215.325C5.041,219.036 8.157,222.138 12.374,224.579C32.58,236.282 100.394,275.126 113.934,283.115C123.04,288.488 131.931,288.68 141.104,283.384C175.119,263.744 209.179,244.186 243.209,224.567C247.426,222.127 250.542,219.023 252.595,215.315L128.182,143.241Z" style="fill:rgb(40,0,104);fill-rule:nonzero;"/>
    </g>
    <g transform="matrix(1.41568,0,0,1.41568,75.0883,52.6705)">
        <path d="M255.569,84.452C255.582,123.908 255.582,202.797 255.582,202.797C255.582,207.522 254.589,211.707 252.595,215.315C250.542,219.023 247.426,222.127 243.209,224.567C209.179,244.186 175.119,263.744 141.104,283.384C131.931,288.68 123.04,288.488 113.934,283.115C100.394,275.126 32.58,236.282 12.374,224.579C8.157,222.138 5.041,219.036 2.988,215.325C0.991,211.717 0,207.532 0,202.808C0.013,163.352 0,123.898 0.013,84.443C0.015,74.861 4.064,67.489 12.385,62.672C32.59,50.969 100.395,12.122 113.938,4.135C123.04,-1.235 131.931,-1.428 141.101,3.866C175.115,23.505 209.173,43.064 243.198,62.683C247.32,65.07 250.393,68.089 252.445,71.691C254.534,75.354 255.567,79.622 255.569,84.452ZM127.814,269.861C128.422,269.861 129.035,269.744 129.605,269.506L215.551,233.88C216.697,233.403 217.604,232.496 218.081,231.351L253.669,145.418C254.146,144.273 254.146,142.982 253.669,141.837L218.081,55.904C217.604,54.759 216.697,53.852 215.551,53.375L129.605,17.749C128.46,17.272 127.165,17.272 126.024,17.749L40.077,53.375C38.932,53.852 38.025,54.759 37.548,55.904L1.913,141.837C1.436,142.982 1.436,144.273 1.913,145.418L37.548,231.351C38.025,232.496 38.932,233.403 40.077,233.88L126.024,269.506C126.594,269.744 127.207,269.861 127.814,269.861ZM45.449,225.979L11.296,143.627L45.449,61.276L127.814,27.128L210.18,61.276L244.291,143.627L210.18,225.979L127.814,260.127L45.449,225.979ZM188.57,92.199L169.869,92.199L169.869,176.027C169.168,175.747 168.513,175.373 167.999,174.765L127.791,129.555L87.583,174.812C87.069,175.373 86.414,175.747 85.713,176.027L85.713,92.199L67.012,92.199L67.012,195.056L84.077,195.056C90.762,195.056 97.121,192.204 101.562,187.201L127.791,157.7L154.02,187.201C158.461,192.204 164.82,195.056 171.505,195.056L188.57,195.056L188.57,92.199Z" style="fill:rgb(161,121,220);"/>
    </g>
    <g transform="matrix(1.49836,0,0,1.49836,64.5233,40.7964)">
        <path d="M201.892,116.294L201.892,129.768L215.366,129.768L215.366,116.294L222.103,116.294L222.103,129.768L235.577,129.768L235.577,136.505L222.103,136.505L222.103,149.978L235.577,149.978L235.577,156.715L222.103,156.715L222.103,170.189L215.366,170.189L215.366,156.715L201.892,156.715L201.892,170.189L195.155,170.189L195.155,156.715L181.682,156.715L181.682,149.978L195.155,149.978L195.155,136.505L181.682,136.505L181.682,129.768L195.155,129.768L195.155,116.294L201.892,116.294ZM215.366,136.505L201.892,136.505L201.892,149.978L215.366,149.978L215.366,136.505Z" style="fill:white;fill-rule:nonzero;"/>
    </g>
    <g transform="matrix(1.49836,0,0,1.49836,64.5233,40.7964)">
        <path d="M188.57,178.224L210.768,191.084C194.513,219.213 164.25,238.241 129.515,238.62L128.457,238.626C93.202,238.626 62.432,219.422 46.038,190.902C38.035,176.979 33.456,160.838 33.456,143.625C33.456,91.159 75.988,48.626 128.457,48.626C163.601,48.626 194.284,67.712 210.719,96.082L210.558,95.809L188.57,108.469L188.57,92.199L169.869,92.199L169.869,119.238L169.21,119.617C161.063,105.824 146.128,96.515 128.996,96.323L128.457,96.32C109.595,96.32 93.31,107.36 85.713,123.331L85.713,92.199L67.012,92.199L67.012,195.056L84.077,195.056C90.762,195.056 97.121,192.204 101.562,187.201L104.197,184.238C111.288,188.488 119.586,190.931 128.457,190.931C136.964,190.931 144.944,188.683 151.84,184.75L154.02,187.201C158.461,192.204 164.82,195.056 171.505,195.056L188.57,195.056L188.57,178.224ZM85.713,163.89C86.232,164.982 86.792,166.051 87.39,167.095C88.298,168.68 89.295,170.208 90.374,171.671L87.583,174.812C87.069,175.373 86.414,175.747 85.713,176.027L85.713,163.89ZM165.946,172.457C167.238,170.779 168.42,169.012 169.481,167.166L169.869,167.39L169.869,176.027C169.168,175.747 168.513,175.373 167.999,174.765L165.946,172.457Z" style="fill:white;"/>
    </g>
</svg>
